<svg version="1.1" id="Layer_1" xmlns="http://www.w3.org/2000/svg" xmlns:xlink="http://www.w3.org/1999/xlink" x="0px" y="0px"
	 width="100%" viewBox="0 0 848 928" enable-background="new 0 0 848 928" xml:space="preserve">
<path fill="#000000" opacity="1.000000" stroke="none" 
	d="
M714.273010,599.213196 
	C717.074707,613.471741 717.573364,627.534180 718.007202,641.884277 
	C723.957092,636.155029 727.157593,628.089600 734.420044,624.169006 
	C736.832031,625.648926 737.032715,627.602600 737.080566,629.333435 
	C737.625488,649.040894 738.179504,669.018005 729.069458,687.107422 
	C717.518677,710.043335 702.651123,730.591736 680.596558,744.942993 
	C677.119263,747.205750 673.951843,749.943237 670.629333,752.445557 
	C666.345459,755.672180 661.931335,755.639404 657.721191,752.499084 
	C653.078247,749.036072 648.438354,745.671082 645.383423,740.370972 
	C641.524292,733.675842 632.198792,730.901367 624.083313,733.739441 
	C616.742249,736.306763 608.904480,737.324402 601.584351,736.681824 
	C592.675476,735.899780 584.557800,738.303650 576.065552,739.131653 
	C555.697876,741.117432 536.114563,747.628418 515.684387,749.011353 
	C511.043213,749.325562 506.454285,750.350891 501.877380,750.731445 
	C490.300873,751.694153 484.179840,759.309570 478.420654,767.930359 
	C475.652130,772.074524 474.164124,776.664612 473.476532,781.370300 
	C472.438293,788.475769 477.375916,792.998840 481.901703,797.385132 
	C486.793518,802.126282 491.762115,806.680969 495.664764,812.411438 
	C507.898773,830.375244 498.197449,854.977295 476.153137,861.078491 
	C469.874054,862.816345 463.393188,863.430115 456.918732,863.896851 
	C452.775787,864.195557 449.187866,863.484741 448.678925,858.238037 
	C448.297852,854.310181 445.106201,854.998840 442.932556,855.560852 
	C435.030365,857.603943 426.937042,858.447021 418.940247,859.876770 
	C406.460846,862.107971 393.880066,863.143433 381.210602,863.371887 
	C377.033051,863.447266 376.472687,861.723694 377.550537,858.120361 
	C379.471039,851.700195 379.123840,851.465088 372.457855,851.269775 
	C367.093872,851.112610 361.646027,851.815552 355.647095,850.500488 
	C358.125854,844.533325 363.193970,842.560608 367.404388,840.098389 
	C374.893097,835.719116 383.070831,833.076721 391.707764,831.389587 
	C405.955811,828.606445 418.544373,821.624207 430.526917,813.698914 
	C435.047729,810.708740 434.332428,808.453186 430.197052,804.839539 
	C422.143066,797.801636 411.572418,796.504639 402.422852,791.972656 
	C381.706757,781.711548 359.712891,774.132324 339.512054,762.761414 
	C318.323273,750.834473 297.554413,738.146118 279.417206,721.814941 
	C267.307831,710.911377 256.717560,698.517151 247.029404,685.339111 
	C234.365433,668.113403 223.923645,649.628784 214.435150,630.531311 
	C211.392303,624.406982 210.255844,617.545044 206.641525,611.654724 
	C205.723785,610.159058 205.542725,608.160706 206.639282,606.356567 
	C208.983490,605.735779 209.848724,607.636536 210.963257,608.956421 
	C213.122559,611.513550 214.954697,610.799377 216.598831,608.475159 
	C217.558029,607.119080 218.405029,605.673523 219.196198,604.210754 
	C221.395340,600.144775 224.325333,598.242065 228.981125,600.448059 
	C230.498489,601.167053 232.262390,601.191101 233.898773,600.741333 
	C247.934814,596.882690 262.059021,601.196411 276.145172,600.311707 
	C281.187408,599.995056 284.687469,603.092346 286.848053,607.889893 
	C290.506805,616.014221 294.997437,623.500244 303.297546,628.003845 
	C306.972382,629.997803 309.619873,633.485352 312.041962,636.828003 
	C315.177429,641.155151 319.043396,644.323364 323.799805,646.596069 
	C328.323700,648.757751 332.357849,651.662109 336.392090,654.648865 
	C342.020996,658.816101 348.063904,662.275818 355.237915,663.391113 
	C367.129028,665.239807 377.400879,671.136108 388.000977,676.429626 
	C402.397522,683.619019 416.313202,691.991089 432.048645,696.244934 
	C440.068176,698.412903 447.433716,701.947021 453.213989,707.978760 
	C459.522614,714.561646 467.379730,718.075195 476.008911,719.513367 
	C488.158752,721.538269 500.404022,722.434692 512.824890,721.652954 
	C524.274902,720.932312 535.677063,722.766541 547.106140,723.935425 
	C561.785400,725.436707 576.132019,727.576111 589.816040,733.283691 
	C590.977539,733.768188 592.471252,733.857422 593.728394,733.644531 
	C600.455261,732.505066 607.169922,731.280701 613.860779,729.945374 
	C618.035583,729.112305 619.520020,726.650940 619.811218,722.157532 
	C620.232910,715.650269 619.714905,708.630432 624.640686,703.142517 
	C625.168701,702.554321 625.892273,701.514465 625.696289,700.999512 
	C623.420837,695.019714 627.664307,690.891174 629.665649,686.093140 
	C631.222229,682.361328 634.811279,680.585449 637.198730,677.647766 
	C639.898682,674.325562 643.222717,671.481873 646.459229,668.639404 
	C647.647217,667.596069 649.601135,666.260986 650.794189,666.583069 
	C656.937012,668.241272 658.175598,664.241699 659.526184,659.866211 
	C661.473022,653.559143 665.378174,648.317627 669.179749,643.052246 
	C670.426758,641.325073 671.757202,639.009094 674.136780,639.475952 
	C676.376648,639.915466 677.011719,642.491455 677.958252,644.411926 
	C678.676208,645.868774 677.804199,648.710693 680.644104,648.291565 
	C682.627258,647.998840 682.314209,645.788330 682.696228,644.188110 
	C686.872498,626.696228 694.017578,610.802246 707.844971,598.658264 
	C709.770264,596.967346 712.220642,593.822754 714.273010,599.213196 
z"/>
<path fill="#000000" opacity="1.000000" stroke="none" 
	d="
M577.937500,312.085938 
	C594.078491,342.174530 612.532043,370.551025 627.646973,400.776001 
	C639.198669,423.875610 649.185120,447.637207 655.393677,472.821899 
	C655.504639,473.271851 655.407532,473.773071 655.407532,475.028168 
	C653.213562,473.056854 653.068237,470.713562 652.272949,468.770020 
	C651.453674,466.768005 650.760559,464.708588 650.115173,462.642120 
	C641.835022,436.129425 630.352844,411.077423 616.043640,387.280945 
	C610.562317,378.165314 605.370850,368.872772 600.174988,359.589355 
	C598.022156,355.742737 595.389954,352.489594 591.799072,349.842712 
	C583.220886,343.519440 574.161865,338.297333 564.125305,334.464325 
	C549.898315,329.030945 538.763977,319.181061 528.534485,308.039917 
	C518.545105,297.160370 509.948914,285.352997 503.085022,272.361664 
	C497.666748,262.106415 492.685028,251.629440 488.986053,240.534927 
	C485.326019,229.557144 480.421265,218.996216 476.709686,208.033325 
	C472.131012,194.509140 467.118073,181.138718 460.599609,168.492813 
	C453.375641,154.478256 447.122345,139.730042 435.863464,128.178375 
	C432.840332,125.076614 429.228180,122.448433 424.621552,122.361526 
	C421.912476,122.310425 420.761841,121.233559 420.353638,118.659531 
	C415.687439,89.236656 395.758575,72.247917 371.078308,59.861576 
	C361.443481,55.026100 350.503143,52.341465 339.786133,57.783154 
	C333.763672,60.841145 327.623444,63.986374 322.350677,68.128914 
	C313.849548,74.807846 304.911743,73.334167 296.197113,70.237289 
	C289.767487,67.952408 285.721222,71.429512 281.473206,74.324539 
	C277.951538,76.724525 275.526611,80.507126 274.820282,85.199417 
	C271.332214,85.418221 268.246429,86.428848 265.620728,88.620789 
	C263.096558,90.727928 259.931671,90.124641 257.177307,89.946465 
	C237.077698,88.646233 223.052628,100.020424 219.753067,119.911201 
	C218.650192,126.559540 218.025284,133.006302 218.835632,139.718872 
	C219.764740,147.415115 216.106140,154.734818 216.410095,162.464935 
	C216.745956,171.006012 215.095795,179.837173 220.637161,187.507996 
	C221.460297,188.647446 221.527130,190.184799 220.775131,191.328903 
	C217.977768,195.584839 218.638504,200.103683 220.246948,204.306763 
	C222.240784,209.516983 223.192993,215.247345 227.072723,219.797836 
	C219.208862,228.879013 219.701645,239.878906 220.820847,250.787827 
	C222.579605,267.931000 226.618195,284.695129 230.017075,301.561218 
	C230.602264,304.465118 230.020035,307.413208 230.456894,310.427948 
	C233.517044,331.545532 234.145401,352.659576 231.008102,373.928040 
	C229.153244,386.502655 226.151871,398.732971 222.815765,410.912018 
	C219.818420,421.854523 213.153061,430.929718 206.717422,440.034119 
	C203.317337,444.844177 200.629059,449.928864 199.005417,455.589020 
	C198.547607,457.184906 197.927094,458.731293 195.775116,459.295776 
	C194.111130,457.407867 194.398346,455.147247 194.949646,453.204529 
	C198.541016,440.548706 196.883606,427.387024 198.784348,414.571808 
	C199.045853,412.808716 199.693558,410.159821 197.029144,409.472260 
	C194.285004,408.764160 192.180176,410.188751 190.947922,412.717285 
	C187.893585,418.984650 184.891327,425.277344 181.838409,431.545380 
	C170.459167,454.908417 155.158234,475.885345 141.400833,497.796204 
	C128.671158,518.070251 114.968521,537.715820 100.503578,556.774658 
	C86.878395,574.727051 74.803825,593.584290 64.039108,613.350281 
	C56.678478,626.865784 52.786201,641.781982 46.462193,655.709595 
	C43.794830,661.584106 41.517681,667.634705 38.953903,673.557922 
	C38.245823,675.193848 37.390953,677.242310 35.100487,676.784607 
	C32.881313,676.341125 32.025963,674.536987 31.904778,672.296997 
	C29.323269,624.581055 37.155571,579.077148 60.916496,537.041809 
	C77.799873,507.173584 95.350502,477.682922 117.036751,450.982208 
	C130.242599,434.722839 143.808411,418.621704 160.725769,405.968445 
	C170.568893,398.606293 180.678314,391.489105 191.246582,385.240448 
	C200.802429,379.590424 204.107300,371.079712 205.783676,361.032532 
	C208.788330,343.024078 211.356232,324.947266 212.430267,306.733917 
	C213.145370,294.607239 212.704361,282.411011 212.734543,270.245789 
	C212.753159,262.746155 212.771561,255.244781 212.640259,247.746826 
	C212.115845,217.799698 209.669067,187.884644 210.730850,157.915909 
	C211.476135,136.880203 214.703995,116.268387 223.502914,96.871010 
	C230.013870,82.517456 241.100754,72.420807 254.212250,64.368858 
	C276.138367,50.903728 299.654297,42.709259 325.735931,42.201130 
	C333.740082,42.045193 341.692596,41.498600 349.597412,42.836079 
	C361.703308,44.884373 371.746582,51.225983 381.572845,58.215614 
	C406.597931,76.016579 425.648743,99.298027 443.823517,123.679413 
	C462.334167,148.511322 479.520966,174.225464 496.903931,199.814178 
	C508.684387,217.155731 520.683228,234.314316 533.965454,250.536301 
	C539.230103,256.966217 544.886963,263.075745 550.389832,269.309479 
	C552.376099,271.559601 554.909241,272.416016 557.921082,272.572815 
	C574.702698,273.446533 591.413696,274.912628 607.735291,279.257538 
	C631.705627,285.638611 654.208130,295.657196 675.731934,307.741577 
	C702.888794,322.988525 728.707947,340.342896 753.386841,359.372559 
	C770.937073,372.905365 785.458557,389.263428 798.430359,407.112335 
	C810.904846,424.276947 820.114624,443.327423 830.283386,461.828033 
	C831.539978,464.114258 831.388794,466.088837 829.474854,467.618774 
	C827.128967,469.494019 825.817322,467.112396 824.548584,465.822510 
	C811.121216,452.171021 798.093018,438.108246 784.296143,424.843842 
	C768.407166,409.568054 750.403076,396.977051 731.351013,385.881470 
	C718.410706,378.345184 705.548645,370.672546 692.716248,362.953400 
	C667.082214,347.533508 641.322021,332.334961 615.297485,317.578003 
	C604.339966,311.364624 593.760803,304.486877 582.938599,298.030151 
	C579.314026,295.867645 575.190552,295.679199 570.419006,295.454254 
	C571.994995,301.757843 575.728333,306.400635 577.937500,312.085938 
z"/>
<path fill="#000000" opacity="1.000000" stroke="none" 
	d="
M413.746063,154.740082 
	C417.513641,153.264191 420.852386,151.728409 424.322021,150.592484 
	C429.937897,148.753906 431.646698,149.978912 432.074707,155.797867 
	C433.026154,168.733719 428.452393,179.964569 421.376160,190.430176 
	C413.718964,201.755051 403.306000,210.400925 393.145569,219.250351 
	C387.843994,223.867874 382.771912,228.621384 378.603912,234.298889 
	C367.930573,248.837601 353.499023,257.273895 335.914246,260.634644 
	C330.890778,261.594727 325.876007,261.740723 321.173126,259.657959 
	C307.976349,253.813431 293.883850,252.646637 279.800873,251.223679 
	C260.284912,249.251801 244.049789,241.204453 232.348267,225.020111 
	C228.041763,219.063812 228.852585,216.697617 235.785294,214.879135 
	C252.743042,210.431000 268.825409,203.584763 284.929596,196.822266 
	C292.070282,193.823746 297.762207,189.247391 300.566132,181.600662 
	C301.767456,178.324478 303.601288,175.104004 306.327301,172.922958 
	C310.899292,169.264908 311.683075,164.500336 311.796722,159.154663 
	C311.879272,155.271790 310.970154,151.228592 312.877533,147.156784 
	C316.255463,147.782623 317.726227,150.340836 318.953339,152.725723 
	C328.645721,171.563156 344.480103,172.946793 360.604065,169.798752 
	C378.540741,166.296753 395.978424,160.533951 413.746063,154.740082 
M359.944366,224.460587 
	C361.168304,222.887573 362.403381,221.323120 363.613342,219.739441 
	C365.181641,217.686783 367.801514,215.760483 365.682953,212.818100 
	C363.667816,210.019333 360.923859,211.426971 358.417328,212.235016 
	C350.204620,214.882553 343.512695,220.084167 336.791931,225.211014 
	C333.446930,227.762711 329.580261,230.630417 331.636322,235.398392 
	C333.732971,240.260468 338.506409,239.028229 342.619537,238.441452 
	C343.587646,238.303360 344.662445,238.032486 345.423615,237.466782 
	C350.467316,233.718216 356.122437,230.645706 359.944366,224.460587 
M335.599335,180.967285 
	C335.408447,182.016479 335.488831,183.008469 336.553070,183.547913 
	C339.888031,185.238297 352.209473,181.081879 354.167633,177.633499 
	C347.200867,173.010895 339.031128,174.176361 335.599335,180.967285 
M390.627258,167.703278 
	C391.705750,170.973801 393.752625,170.031540 395.593231,168.659134 
	C396.858917,167.715439 396.819061,166.190582 395.529053,165.268143 
	C393.200897,163.603394 391.962982,165.402939 390.627258,167.703278 
z"/>
<path fill="#000000" opacity="1.000000" stroke="none" 
	d="
M345.599854,129.670776 
	C340.652588,136.997803 341.674408,141.584305 350.011108,148.577103 
	C349.122040,144.898956 348.584137,141.721130 350.221649,138.672989 
	C351.877502,135.590790 354.343842,133.441727 357.551636,132.221985 
	C361.889160,130.572678 366.917877,132.035614 369.725159,135.582260 
	C373.501556,140.353241 373.092621,145.016495 368.252502,151.938263 
	C373.000977,153.633423 377.490021,153.838852 381.612671,150.312210 
	C382.653320,149.422012 384.052856,149.019394 385.224274,150.219742 
	C386.394043,151.418457 385.813110,152.706055 385.083527,153.864273 
	C381.035614,160.290787 374.782990,163.144073 367.612366,164.094681 
	C359.776337,165.133484 352.462311,163.024139 345.538025,159.453873 
	C342.106842,157.684708 339.669189,154.944717 339.011108,151.099701 
	C338.227844,146.523026 337.380707,141.888855 337.331024,137.271301 
	C337.259094,130.587250 342.314209,126.256676 345.876129,121.356934 
	C351.716278,113.323257 360.555298,114.727783 368.216125,116.152992 
	C376.334839,117.663376 382.282135,123.398445 384.856232,131.762939 
	C385.025543,132.313110 384.735016,133.004776 384.490723,135.000458 
	C377.612183,125.169647 369.035370,120.849228 357.999207,122.189423 
	C352.877716,122.811356 349.203735,125.844223 345.599854,129.670776 
z"/>
<path fill="#000000" opacity="1.000000" stroke="none" 
	d="
M272.816895,184.124115 
	C267.042358,184.248077 263.661011,181.460953 261.749023,176.684845 
	C260.146729,172.682343 261.257355,169.183411 264.068390,166.124878 
	C267.381561,162.520065 271.341797,160.736496 276.156738,162.630707 
	C280.576263,164.369385 282.877869,167.847473 283.320007,172.573730 
	C283.814972,177.864456 280.877655,180.966782 276.547485,183.118225 
	C275.528473,183.624512 274.337677,183.785172 272.816895,184.124115 
z"/>
<path fill="#000000" opacity="1.000000" stroke="none" 
	d="
M263.317505,155.189316 
	C259.154602,157.365829 257.292480,161.269150 254.560196,164.475967 
	C252.715393,160.263611 258.609497,151.481232 265.251160,148.129547 
	C271.604858,144.923172 282.905090,147.904205 287.007263,154.564819 
	C278.862976,153.944397 271.002106,150.015823 263.317505,155.189316 
z"/>
<path fill="#000000" opacity="1.000000" stroke="none" 
	d="
M283.255981,191.400528 
	C278.446289,194.161560 273.743103,196.316879 268.500610,196.538010 
	C266.182678,196.635788 263.517975,196.760147 260.625610,192.979584 
	C267.179565,194.028564 272.467072,193.952789 277.274384,191.213242 
	C281.870270,188.594177 284.786957,183.768814 290.226837,181.349503 
	C290.290253,186.626434 286.673981,188.738388 283.255981,191.400528 
z"/>
</svg>